PathFileType	4	(X/Y/Z)	0_coords_data.trc
DataRate	CameraRate	NumFrames	NumMarkers	Units	OrigDataRate	OrigDataStartFrame	OrigNumFrames
30.0	30.0	6	21	m	30.0	21	71
Frame#	Time	THUMB_TIP	THUMB_IP	THUMB_MCP	THUMB_CMC	INDEX_TIP	INDEX_DIP	INDEX_PIP	INDEX_MCP	MIDDLE_TIP	MIDDLE_DIP	MIDDLE_PIP	MIDDLE_MCP	RING_TIP	RING_DIP	RING_PIP	RING_MCP	PINKY_TIP	PINKY_DIP	PINKY_PIP	PINKY_MCP	WRIST
X1	Y1	Z1	X2	Y2	Z2	X3	Y3	Z3	X4	Y4	Z4	X5	Y5	Z5	X6	Y6	Z6	X7	Y7	Z7	X8	Y8	Z8	X9	Y9	Z9	X10	Y10	Z10	X11	Y11	Z11	X12	Y12	Z12	X13	Y13	Z13	X14	Y14	Z14	X15	Y15	Z15	X16	Y16	Z16	X17	Y17	Z17	X18	Y18	Z18	X19	Y19	Z19	X20	Y20	Z20	X21	Y21	Z21
19	0.6666666666666637	0.46730932507253864	-0.03023434412206727	-0.1710884517124564	0.4784306866281134	-0.034252428249454736	-0.15138641331295516	0.46955074007807496	-0.031498902871508694	-0.12168145333551256	0.4729882395619195	-0.031390960333602336	-0.07720604501015732	0.560294620682648	0.015353182218707406	-0.18537170323611551	0.5503966185246896	0.00883584352418898	-0.171676673129468	0.5368748900612119	-4.3194487480358035e-05	-0.15243257334934546	0.5118185753973865	-0.008014091154802672	-0.11893209580370079	0.5961379876516538	0.03627025619792279	-0.14188617976768692	0.5830810580319387	0.026237621042029757	-0.1343454357238577	0.5610760539607651	0.011867819067427066	-0.12174789084247928	0.5238155554824127	-0.001144685026540193	-0.10080802667507888	0.6061618124010782	0.03645169998547182	-0.09237930699347235	0.5911126184587178	0.026813927690674366	-0.09000546898744594	0.5697059058603529	0.014397330426683785	-0.087219657235933	0.5337784497429557	-0.003487340760508717	-0.08231279801046937	0.6023175868997773	0.0042629971547711865	-0.03711619479851691	0.5864374169621739	0.0011208190598913648	-0.04267919035602852	0.5668589108546156	-0.0013367171908406084	-0.049852378850180734	0.5333482409326176	-0.005768646256557264	-0.06243317600836401	0.4622830810018609	-0.023011742144276925	-0.051989820119430985
20	0.6999999999999968	0.4683722264379453	-0.03098253109046989	-0.1712147172641003	0.4789546829402068	-0.0347823137046499	-0.15117542420115215	0.4696205537669327	-0.031815085059126225	-0.12163071931615094	0.47299775093819996	-0.03154171513304471	-0.07715140043478874	0.5611010089401739	0.013135769466480096	-0.18558330703746467	0.5508794170984527	0.0074210091637424425	-0.1717680772202118	0.5371274493645507	-0.0009021355301713774	-0.15243886412578161	0.5119198957499362	-0.008342324956218117	-0.11892977705867569	0.5970898029612507	0.03436070493408405	-0.14211598345200555	0.5836693334287908	0.02497182346387039	-0.1343868242308101	0.5613405735017902	0.011208175489411887	-0.12168257200733917	0.5238901601773296	-0.0013580702419060398	-0.10080904975911292	0.6071251555719227	0.03460548296245569	-0.09272814917604272	0.5916775806292388	0.025665676761289946	-0.09018801266873411	0.5699895347329297	0.013781834027036477	-0.08725834953671341	0.533836664153758	-0.003616094819808624	-0.08225806407228353	0.6024513174076788	0.0036548148196896557	-0.037050770284307755	0.5865144132697493	0.0006892790652714975	-0.04254810456445807	0.5669134268269272	-0.001620158900141777	-0.049709099310456084	0.5333992331164291	-0.005915936610964456	-0.06232767945223139	0.4622830810018608	-0.023011742144276925	-0.051989820119430985
21	0.7333333333333302	0.46950379240352524	-0.03172108721457112	-0.17136086255223043	0.4794624922080969	-0.03527635297669163	-0.15096026492463333	0.4696776272193428	-0.032109871121480005	-0.12158255552086134	0.4730121816326981	-0.031670091298705016	-0.07710135341736762	0.5618248559303298	0.010896356728714585	-0.18578751819769163	0.5513017149608924	0.00602281438062624	-0.1718766559268351	0.5373274571763772	-0.0017136283982240874	-0.15246332531352996	0.5119863052651353	-0.008615512395598546	-0.11893980952090827	0.5978936567957939	0.03251651104035902	-0.1424411850946446	0.5841519486028881	0.023771504429860646	-0.13452346349538602	0.5615328420222321	0.010626054523630857	-0.1216789037810273	0.5239284016835786	-0.0015111534670373405	-0.10082843208353537	0.6079986135381547	0.032797919638650086	-0.0931761706250469	0.5921887667683358	0.024574139150668528	-0.09045253709603757	0.5702343815818162	0.013233339202984307	-0.08735880041872768	0.533862255321499	-0.003662021764717749	-0.08222693496115718	0.6026078104257889	0.003007759271843713	-0.0371142285310847	0.5865962354853129	0.00026330433657861807	-0.04250843236796553	0.5669579966937216	-0.0018612737286726189	-0.04962445402399562	0.5334248538931606	-0.005977392254025271	-0.06225257158768838	0.4622830810018609	-0.023011742144276925	-0.051989820119430985
22	0.7666666666666633	0.47064413413005457	-0.03235963695165989	-0.17149098425472709	0.4799482350055704	-0.035679900060649805	-0.150744669888428	0.46970362015780276	-0.032347130399918766	-0.12154260638241166	0.47300990528056774	-0.03179015866667312	-0.07706060708859219	0.5624391391987198	0.008833016518311032	-0.1859417928856822	0.5516482816689663	0.004784286704235141	-0.17197163967731777	0.5374828577368116	-0.00240117333127432	-0.1524852402690013	0.5120130129905542	-0.008803175232746319	-0.11896006354679589	0.5985027747933104	0.030922469344049852	-0.14280159778941492	0.5845047206472415	0.022766277398770796	-0.1347064749938367	0.5616482752638207	0.01018519346929636	-0.12171768053113852	0.5239363016663398	-0.0015841133099100402	-0.10085052005540918	0.6087255464542778	0.031188407052127	-0.09363113633507425	0.5926023291162215	0.02366202801404549	-0.09073364065001632	0.5704210937568056	0.012819343559789864	-0.08747649914930622	0.5338610424809145	-0.003620780100176968	-0.08220337685324558	0.6027775252589278	0.0024295544256727197	-0.037266884069427686	0.5866844067053792	-5.121528392137975e-05	-0.0425448871832379	0.5669967174979793	-0.001981696754065454	-0.04957910028537388	0.5334312417638588	-0.005953104859394709	-0.06216759532660465	0.462283081001861	-0.023011742144276925	-0.051989820119430985
23	0.7999999999999965	0.47178707472231707	-0.0328869911380556	-0.17157915577398858	0.4804490898214534	-0.035987252125415536	-0.1505230907039764	0.4697483725500976	-0.03252417310544742	-0.12150031114067533	0.4730341567837024	-0.03188175115934977	-0.07701794479159979	0.5630024350482521	0.00707014124915939	-0.18598473649250247	0.5519817431468463	0.0037804486160802897	-0.17199465885175463	0.5376460688114211	-0.0029278376770395242	-0.15246270632881997	0.512067673955016	-0.0089289550158278	-0.11894601792951759	0.5989804784084685	0.029679583449939928	-0.14304330040747965	0.584782073950506	0.022021164399400495	-0.13481202295531902	0.5617426568251253	0.009898984891956286	-0.12171058896846032	0.5239471866932376	-0.0015997130846115981	-0.1008436221703542	0.609301310705607	0.0298765320051555	-0.09397201473012723	0.5929279303855705	0.022971271115500236	-0.0909339579595515	0.5705637760175093	0.012553490272191548	-0.0875436156903514	0.5338568263203757	-0.0035142756457167135	-0.08214476615184696	0.6029256027635415	0.0019084703185211493	-0.037410001715524555	0.5867498660799443	-0.00028642738451556404	-0.042560532447025345	0.5670138231803771	-0.002012968304938023	-0.04951176874832802	0.5334183681514328	-0.005839044431488527	-0.06206525407599822	0.4622830810018609	-0.023011742144276925	-0.051989820119430985
24	0.8333333333333297	0.472806178458411	-0.033252068549818214	-0.1716220833782629	0.4809331876331232	-0.03616919810534913	-0.15032790396156798	0.4698135677647649	-0.03260028519683633	-0.12147592110709743	0.4730557947554149	-0.03193208016895266	-0.0769907385607505	0.5634829830119656	0.005699963625236837	-0.18594182825377503	0.5522721153920926	0.003048822407388685	-0.17196728362961233	0.5377989376692088	-0.003270841985367534	-0.15240715066573007	0.5121190220385052	-0.008944238071705968	-0.1189110224708555	0.5993155555200256	0.02882590970541965	-0.14320013708533347	0.5849702676311282	0.02155180398481693	-0.13487546884268564	0.561797892726887	0.009784567527498123	-0.12168521723572817	0.5239564140651181	-0.0015335606947820546	-0.10080291881733294	0.6097402819887464	0.02886468859193314	-0.09419845512868835	0.5931748059530251	0.022485555402004254	-0.0910533536271319	0.5706658047866484	0.012413141694712415	-0.08757897201291415	0.5338367796592267	-0.003337264238893578	-0.08207729453323787	0.6030648467840196	0.0013676305755486728	-0.03756034342192216	0.5868019714760997	-0.0005077447134159696	-0.04256052884294276	0.5670142978714285	-0.002010029046169315	-0.04941641201716385	0.5333931606236615	-0.005668830629420363	-0.0619509942655363	0.4622830810018609	-0.023011742144276925	-0.051989820119430985
